<svg width="45" height="32" fill="none" xmlns="http://www.w3.org/2000/svg"><rect width="45" height="32" rx="2" fill="#1F72CD"/><path fill-rule="evenodd" clip-rule="evenodd" d="M7.967 11.333l-4.241 9.663h5.077l.63-1.54h1.439l.63 1.54h5.588V19.82l.498 1.176h2.891l.498-1.201v1.2h11.624l1.413-1.5 1.324 1.5 5.97.013-4.255-4.816 4.255-4.859h-5.877l-1.376 1.473-1.282-1.473H20.128l-1.086 2.494-1.111-2.494h-5.067v1.136l-.564-1.136H7.967zm.983 1.372h2.475l2.813 6.553v-6.553h2.712l2.172 4.698 2.003-4.698h2.698v6.934h-1.642l-.013-5.433-2.393 5.433h-1.469L15.9 14.206v5.433h-3.377l-.64-1.555h-3.46l-.638 1.553h-1.81l2.975-6.932zm23.05 0h-6.675v6.93h6.571l2.118-2.297 2.042 2.297h2.134l-3.102-3.445 3.102-3.485H36.15l-2.108 2.27L32 12.706zM10.154 13.88l-1.14 2.769h2.278l-1.138-2.77zm16.82 1.528V14.14h4.164l1.817 2.024-1.897 2.035h-4.085v-1.382h3.642v-1.41h-3.642z" fill="#fff"/></svg>