<svg width="45" height="32" fill="none" xmlns="http://www.w3.org/2000/svg"><rect width="45" height="32" rx="2" fill="#fff"/><path fill-rule="evenodd" clip-rule="evenodd" d="M12.439 11.124c-.38.47-.99.84-1.598.787-.076-.635.222-1.309.57-1.725.381-.483 1.047-.826 1.586-.853.063.661-.184 1.309-.558 1.791zm.552.912c-.537-.032-1.026.168-1.421.33-.255.104-.47.192-.634.192-.184 0-.408-.093-.66-.197-.33-.136-.708-.293-1.103-.285-.907.013-1.75.548-2.213 1.4-.952 1.706-.248 4.23.672 5.618.45.687.99 1.44 1.7 1.414.312-.012.537-.112.77-.214.267-.119.545-.242.98-.242.42 0 .685.12.94.235.243.11.477.214.823.208.735-.013 1.198-.687 1.649-1.375.486-.737.7-1.457.732-1.566l.003-.013-.017-.009c-.162-.077-1.404-.67-1.416-2.258-.012-1.333.985-2.008 1.142-2.114l.019-.014c-.635-.978-1.624-1.083-1.966-1.11zm5.092 8.386V10.12h3.71c1.915 0 3.254 1.374 3.254 3.383 0 2.01-1.364 3.397-3.305 3.397h-2.124v3.522h-1.535zm1.535-8.954h1.77c1.33 0 2.092.74 2.092 2.042 0 1.302-.761 2.049-2.1 2.049h-1.762v-4.091zm10.496 7.718c-.406.807-1.3 1.316-2.264 1.316-1.427 0-2.423-.886-2.423-2.22 0-1.323.964-2.082 2.746-2.195l1.915-.119V15.4c0-.84-.526-1.295-1.465-1.295-.773 0-1.338.416-1.452 1.05h-1.383c.045-1.335 1.25-2.306 2.88-2.306 1.756 0 2.898.958 2.898 2.445v5.128h-1.42v-1.236h-.032zm-1.852.093c-.818 0-1.338-.41-1.338-1.038 0-.647.5-1.024 1.458-1.083l1.706-.113v.582c0 .965-.786 1.652-1.826 1.652zm8.016 1.546c-.615 1.805-1.32 2.4-2.816 2.4-.114 0-.495-.014-.583-.04v-1.236c.095.013.33.026.45.026.678 0 1.059-.297 1.294-1.07l.14-.456-2.601-7.5h1.605l1.807 6.086h.032l1.807-6.087h1.56l-2.695 7.877z" fill="#000"/></svg>