<svg width="45" height="32" fill="none" xmlns="http://www.w3.org/2000/svg"><rect width="45" height="32" rx="2" fill="#fff"/><path fill-rule="evenodd" clip-rule="evenodd" d="M21.254 20.704v-3.913h2.02c.827 0 1.525-.277 2.095-.824l.136-.139a2.817 2.817 0 00-.136-3.943 2.882 2.882 0 00-2.096-.84h-3.242v9.659h1.223zm0-5.099v-3.374h2.05c.44 0 .858.17 1.17.478.66.647.675 1.725.037 2.395a1.587 1.587 0 01-1.207.501h-2.05zm9.953-.994c-.524-.485-1.238-.731-2.14-.731-1.163 0-2.036.431-2.613 1.286l1.078.685c.395-.585.934-.878 1.618-.878.432 0 .85.162 1.176.455.32.277.501.678.501 1.101v.285c-.47-.262-1.062-.4-1.791-.4-.85 0-1.534.2-2.043.608-.508.409-.766.948-.766 1.633-.016.624.25 1.217.72 1.618.48.431 1.087.647 1.8.647.843 0 1.511-.378 2.02-1.133h.053v.917h1.169v-4.075c0-.855-.258-1.532-.782-2.018zm-3.317 4.876a1.004 1.004 0 01-.403-.809c0-.362.167-.662.494-.901.334-.239.751-.362 1.245-.362.683-.008 1.215.146 1.595.454 0 .524-.206.979-.608 1.364-.364.37-.858.578-1.374.578a1.48 1.48 0 01-.95-.324zm6.726 4.12l4.084-9.512h-1.328l-1.89 4.745h-.023l-1.936-4.745h-1.329l2.68 6.185-1.518 3.328h1.26z" fill="#3C4043"/><path d="M17.034 15.944c0-.378-.03-.755-.091-1.125h-5.155v2.134h2.953a2.57 2.57 0 01-1.093 1.687v1.386h1.761c1.033-.963 1.625-2.388 1.625-4.082z" fill="#4285F4"/><path d="M11.788 21.366c1.473 0 2.718-.492 3.621-1.34l-1.761-1.386c-.493.339-1.124.531-1.86.531-1.427 0-2.634-.978-3.067-2.287H6.906v1.432a5.452 5.452 0 004.882 3.05z" fill="#34A853"/><path d="M8.72 16.884a3.392 3.392 0 010-2.126v-1.425H6.907a5.57 5.57 0 000 4.976l1.815-1.425z" fill="#FBBC04"/><path d="M11.788 12.47a2.919 2.919 0 012.095.832l1.564-1.587a5.235 5.235 0 00-3.659-1.44c-2.065 0-3.956 1.186-4.882 3.058l1.815 1.432c.433-1.317 1.64-2.295 3.067-2.295z" fill="#EA4335"/></svg>