<svg width="45" height="32" viewBox="0 0 45 32" fill="none" xmlns="http://www.w3.org/2000/svg">
<rect width="45" height="32" rx="2" fill="white"/>
<g clip-path="url(#clip0_750_1379)">
<path d="M7 4.07561V27.9244C7 29.066 7.93403 30 9.07561 30H23.3247C34.0971 30 38.7672 23.9704 38.7672 15.9689C38.7672 8.0089 34.0971 2 23.3247 2H9.07561C7.93403 2 7 2.93403 7 4.07561Z" fill="white"/>
<path d="M16.5374 7.85329V25.4753H24.2067C31.1704 25.4753 34.1904 21.542 34.1904 15.9793C34.1904 10.6554 31.1704 6.5249 24.2067 6.5249H17.8657C17.1289 6.5249 16.5374 7.12683 16.5374 7.85329Z" fill="#CC0066"/>
<path d="M23.3247 28.1008H10.9333C9.83319 28.1008 8.94067 27.2083 8.94067 26.1082V5.90213C8.94067 4.80206 9.83319 3.90955 10.9333 3.90955H23.3247C35.083 3.90955 36.8369 11.4752 36.8369 15.9792C36.8369 23.7939 32.0319 28.1008 23.3247 28.1008ZM10.9333 4.57374C10.1964 4.57374 9.60487 5.16529 9.60487 5.90213V26.1082C9.60487 26.8451 10.1964 27.4366 10.9333 27.4366H23.3247C31.6064 27.4366 36.1727 23.3684 36.1727 15.9792C36.1727 6.0578 28.1193 4.57374 23.3247 4.57374H10.9333Z" fill="black"/>
<path d="M19.2357 13.6027C19.5055 13.6027 19.7546 13.6442 19.9933 13.7272C20.232 13.8102 20.4292 13.9451 20.6056 14.1112C20.7717 14.2876 20.9066 14.5056 21.0104 14.7546C21.1038 15.0141 21.1557 15.315 21.1557 15.6679C21.1557 15.9792 21.1142 16.2594 21.0415 16.5189C20.9585 16.7783 20.8443 17.0067 20.6886 17.1935C20.533 17.3803 20.3358 17.5256 20.0971 17.6397C19.8584 17.7435 19.5782 17.8058 19.2565 17.8058H17.4403V13.5923H19.2357V13.6027ZM19.1734 17.0378C19.3084 17.0378 19.4329 17.017 19.5678 16.9755C19.6924 16.934 19.8065 16.8614 19.8999 16.7576C19.9933 16.6538 20.0763 16.5293 20.1386 16.3632C20.2009 16.1972 20.232 16.0104 20.232 15.7717C20.232 15.5641 20.2113 15.3669 20.1697 15.2009C20.1282 15.0348 20.0556 14.8792 19.9622 14.765C19.8688 14.6508 19.7442 14.5471 19.5886 14.4848C19.4329 14.4225 19.2461 14.3914 19.0178 14.3914H18.3536V17.0482H19.1734V17.0378Z" fill="white"/>
<path d="M24.9021 13.6027V14.381H22.6812V15.2839H24.7257V16H22.6812V17.0274H24.954V17.8058H21.7576V13.5923H24.9021V13.6027Z" fill="white"/>
<path d="M28.0778 13.6027L29.6552 17.8162H28.6901L28.3684 16.8821H26.7909L26.4588 17.8162H25.5248L27.1126 13.6027H28.0778ZM28.1297 16.1868L27.6004 14.6405H27.59L27.04 16.1868H28.1297Z" fill="white"/>
<path d="M31.1601 13.6027V17.0378H33.215V17.8162H30.2365V13.6027H31.1601Z" fill="white"/>
<path d="M13.0712 17.6501C14.143 17.6501 15.0119 16.7812 15.0119 15.7094C15.0119 14.6376 14.143 13.7687 13.0712 13.7687C11.9994 13.7687 11.1305 14.6376 11.1305 15.7094C11.1305 16.7812 11.9994 17.6501 13.0712 17.6501Z" fill="black"/>
<path d="M14.5345 25.4752C12.9052 25.4752 11.5975 24.1572 11.5975 22.5382V20.2447C11.5975 19.4352 12.2514 18.771 13.0712 18.771C13.8807 18.771 14.5449 19.4248 14.5449 20.2447V25.4752H14.5345Z" fill="black"/>
</g>
<defs>
<clipPath id="clip0_750_1379">
<rect width="31.7672" height="28" fill="white" transform="translate(7 2)"/>
</clipPath>
</defs>
</svg>
