<svg width="32" height="32" fill="none" xmlns="http://www.w3.org/2000/svg"><path fill-rule="evenodd" clip-rule="evenodd" d="M10.1614 2.08789C11.643 2.01256 12.1202 2 15.887 2c3.6607 0 4.2144.02372 5.5911.08267.0399.00171.0805.00345.1219.00522 1.4691.06278 2.4861.30135 3.365.64036.9166.36413 1.6951.84126 2.461 1.60718.7785.77847 1.2556 1.54439 1.6072 2.46098.3516.87893.5776 1.88341.6529 3.36499.0753 1.4816.0879 1.9588.0879 5.7256 0 3.656-.0237 4.213-.0825 5.5973l-.0054.1283c-.0628 1.469-.3013 2.4861-.6404 3.365-.3641.9166-.8412 1.695-1.6071 2.461-.7785.7784-1.5444 1.2556-2.461 1.6071-.8789.3391-1.8834.5776-3.365.6404-1.4817.0753-1.9588.0879-5.7256.0879-3.656 0-4.213-.0237-5.5973-.0825l-.1283-.0054c-1.46902-.0628-2.48606-.3013-3.36499-.6404-.91659-.3641-1.69506-.8412-2.46098-1.6071-.77848-.7785-1.25561-1.5444-1.60718-2.461-.33901-.8789-.57758-1.8834-.64036-3.365C2.01256 20.1309 2 19.6538 2 15.887c0-3.656.02366-4.213.08245-5.5973.00178-.042.0036-.0847.00544-.1283.06278-1.48158.30135-2.48606.64036-3.36499.36413-.91659.8287-1.69506 1.60718-2.46098.77847-.77848 1.54439-1.25561 2.46098-1.60718.87893-.33901 1.88341-.57758 3.36499-.64036Zm11.3382 2.49866c-1.4691-.06278-1.9086-.07534-5.6126-.07534-3.704 0-4.1435.01256-5.6126.07534-1.35601.06278-2.08427.28879-2.57395.47713-.64036.25112-1.10493.55246-1.59462 1.04215-.48969.48969-.79103.9417-1.04215 1.59462-.18834.48968-.41435 1.21794-.47713 2.57395-.06278 1.4691-.07534 1.9086-.07534 5.6126 0 3.704.01256 4.1435.07534 5.6126.06278 1.356.28879 2.0843.47713 2.5739.25112.6404.55246 1.105 1.04215 1.5947.48969.4896.9417.791 1.59462 1.0421.48968.1884 1.21794.4144 2.57395.4771 1.4691.0628 1.9086.0754 5.6126.0754 3.704 0 4.1435-.0126 5.6126-.0754 1.356-.0627 2.0843-.2887 2.5739-.4771.6404-.2511 1.105-.5525 1.5947-1.0421.4896-.4897.791-.9417 1.0421-1.5947.1884-.4896.4144-1.2179.4771-2.5739.0628-1.4691.0754-1.9086.0754-5.6126 0-3.704-.0126-4.1435-.0754-5.6126-.0627-1.35601-.2887-2.08427-.4771-2.57395-.2511-.64036-.5525-1.10493-1.0421-1.59462-.4897-.48969-.9417-.79103-1.5947-1.04215-.4896-.18834-1.2179-.41435-2.5739-.47713Z" fill="#262626"/><path fill-rule="evenodd" clip-rule="evenodd" d="M8.75516 15.887c0-3.9426 3.18924-7.13184 7.13184-7.13184 3.93 0 7.1318 3.18924 7.1318 7.13184 0 3.9426-3.1892 7.1318-7.1318 7.1318s-7.13184-3.1892-7.13184-7.1318Zm2.49864-.0126c0 2.5615 2.0718 4.6332 4.6332 4.6332 2.5489 0 4.6332-2.0592 4.6332-4.6206 0-2.5614-2.0718-4.6332-4.6332-4.6332-2.5614 0-4.6332 2.0592-4.6332 4.6206Z" fill="#262626"/><path d="M24.965 8.47892c0 .92229-.7476 1.66998-1.6699 1.66998-.9223 0-1.67-.74769-1.67-1.66998s.7477-1.66995 1.67-1.66995c.9223 0 1.6699.74766 1.6699 1.66995Z" fill="#262626"/></svg>