<svg width="45" height="32" fill="none" xmlns="http://www.w3.org/2000/svg"><rect width="45" height="32" rx="2" fill="#fff"/><path fill-rule="evenodd" clip-rule="evenodd" d="M22.749 22.44a9.07 9.07 0 01-5.865 2.133c-4.993 0-9.04-4-9.04-8.933 0-4.934 4.047-8.933 9.04-8.933A9.07 9.07 0 0122.75 8.84a9.07 9.07 0 015.864-2.134c4.993 0 9.041 4 9.041 8.933 0 4.934-4.048 8.933-9.04 8.933a9.07 9.07 0 01-5.865-2.134z" fill="#ED0006"/><path fill-rule="evenodd" clip-rule="evenodd" d="M22.749 22.44a8.87 8.87 0 003.176-6.8 8.87 8.87 0 00-3.176-6.8 9.07 9.07 0 015.864-2.133c4.993 0 9.041 4 9.041 8.933 0 4.934-4.048 8.933-9.041 8.933a9.07 9.07 0 01-5.864-2.134z" fill="#F9A000"/><path fill-rule="evenodd" clip-rule="evenodd" d="M22.749 22.44a8.87 8.87 0 003.176-6.8 8.87 8.87 0 00-3.176-6.8 8.87 8.87 0 00-3.177 6.8 8.87 8.87 0 003.177 6.8z" fill="#FF5E00"/></svg>