<svg xmlns="http://www.w3.org/2000/svg" xml:space="preserve" viewBox="0 0 155 60"><path fill="none" d="M0 0h155v60H0z"/><path d="M140 50H15c-2.75 0-5-2.25-5-5V15c0-2.75 2.25-5 5-5h125c2.75 0 5 2.25 5 5v30c0 2.75-2.25 5-5 5z"/><path fill="#a6a6a6" d="M140 10.8c2.32 0 4.2 1.88 4.2 4.2v30c0 2.32-1.88 4.2-4.2 4.2H15c-2.32 0-4.2-1.88-4.2-4.2V15c0-2.32 1.88-4.2 4.2-4.2h125m0-.8H15c-2.75 0-5 2.25-5 5v30c0 2.75 2.25 5 5 5h125c2.75 0 5-2.25 5-5V15c0-2.75-2.25-5-5-5z"/><path fill="#fff" d="M78.14 31.75c-2.35 0-4.27 1.79-4.27 4.25 0 2.45 1.92 4.25 4.27 4.25 2.35 0 4.27-1.8 4.27-4.25 0-2.46-1.92-4.25-4.27-4.25zm0 6.83c-1.29 0-2.4-1.06-2.4-2.58 0-1.53 1.11-2.58 2.4-2.58 1.29 0 2.4 1.05 2.4 2.58 0 1.52-1.12 2.58-2.4 2.58zm-9.32-6.83c-2.35 0-4.27 1.79-4.27 4.25 0 2.45 1.92 4.25 4.27 4.25 2.35 0 4.27-1.8 4.27-4.25 0-2.46-1.92-4.25-4.27-4.25zm0 6.83c-1.29 0-2.4-1.06-2.4-2.58 0-1.53 1.11-2.58 2.4-2.58 1.29 0 2.4 1.05 2.4 2.58 0 1.52-1.11 2.58-2.4 2.58zm-11.08-5.52v1.8h4.32c-.13 1.01-.47 1.76-.98 2.27-.63.63-1.61 1.32-3.33 1.32-2.66 0-4.74-2.14-4.74-4.8s2.08-4.8 4.74-4.8c1.43 0 2.48.56 3.25 1.29l1.27-1.27c-1.08-1.03-2.51-1.82-4.53-1.82-3.64 0-6.7 2.96-6.7 6.61 0 3.64 3.06 6.61 6.7 6.61 1.97 0 3.45-.64 4.61-1.85 1.19-1.19 1.56-2.87 1.56-4.22 0-.42-.03-.81-.1-1.13h-6.07zm45.31 1.4c-.35-.95-1.43-2.71-3.64-2.71-2.19 0-4.01 1.72-4.01 4.25 0 2.38 1.8 4.25 4.22 4.25 1.95 0 3.08-1.19 3.54-1.88l-1.45-.97c-.48.71-1.14 1.18-2.09 1.18s-1.63-.44-2.06-1.29l5.69-2.35-.2-.48zm-5.8 1.42c-.05-1.64 1.27-2.48 2.22-2.48.74 0 1.37.37 1.58.9l-3.8 1.58zM92.63 40h1.87V27.5h-1.87V40zm-3.06-7.3h-.07c-.42-.5-1.22-.95-2.24-.95-2.13 0-4.08 1.87-4.08 4.27 0 2.38 1.95 4.24 4.08 4.24 1.01 0 1.82-.45 2.24-.97h.06v.61c0 1.63-.87 2.5-2.27 2.5-1.14 0-1.85-.82-2.14-1.51l-1.63.68c.47 1.13 1.71 2.51 3.77 2.51 2.19 0 4.04-1.29 4.04-4.43v-7.64h-1.77v.69zm-2.15 5.88c-1.29 0-2.37-1.08-2.37-2.56 0-1.5 1.08-2.59 2.37-2.59 1.27 0 2.27 1.1 2.27 2.59.01 1.48-.99 2.56-2.27 2.56zm24.39-11.08h-4.47V40h1.87v-4.74h2.61c2.07 0 4.1-1.5 4.1-3.88s-2.05-3.88-4.11-3.88zm.04 6.02h-2.65v-4.29h2.65c1.4 0 2.19 1.16 2.19 2.14 0 .98-.79 2.15-2.19 2.15zm11.54-1.79c-1.35 0-2.75.6-3.33 1.91l1.66.69c.35-.69 1.01-.92 1.7-.92.96 0 1.95.58 1.96 1.61v.13c-.34-.19-1.06-.48-1.95-.48-1.79 0-3.6.98-3.6 2.81 0 1.67 1.46 2.75 3.1 2.75 1.25 0 1.95-.56 2.38-1.22h.06v.97h1.8v-4.79c.01-2.22-1.65-3.46-3.78-3.46zm-.23 6.85c-.61 0-1.46-.31-1.46-1.06 0-.96 1.06-1.33 1.98-1.33.82 0 1.21.18 1.7.42-.14 1.15-1.14 1.97-2.22 1.97zM133.74 32l-2.14 5.42h-.06L129.32 32h-2.01l3.33 7.58-1.9 4.21h1.95L135.82 32h-2.08zm-16.8 8h1.87V27.5h-1.87V40z"/><linearGradient id="a" x1="31.7997" x2="15.0173" y1="183.2903" y2="166.5079" gradientTransform="matrix(1 0 0 -1 0 202)" gradientUnits="userSpaceOnUse"><stop offset="0" stop-color="#00a0ff"/><stop offset=".00657445" stop-color="#00a1ff"/><stop offset=".2601" stop-color="#00beff"/><stop offset=".5122" stop-color="#00d2ff"/><stop offset=".7604" stop-color="#00dfff"/><stop offset="1" stop-color="#00e3ff"/></linearGradient><path fill="url(#a)" d="M20.44 17.54c-.29.31-.46.79-.46 1.4v22.12c0 .62.17 1.1.46 1.4l.07.07L32.9 30.15v-.3L20.51 17.47l-.07.07z"/><linearGradient id="b" x1="43.8344" x2="19.6375" y1="171.9986" y2="171.9986" gradientTransform="matrix(1 0 0 -1 0 202)" gradientUnits="userSpaceOnUse"><stop offset="0" stop-color="#ffe000"/><stop offset=".4087" stop-color="#ffbd00"/><stop offset=".7754" stop-color="orange"/><stop offset="1" stop-color="#ff9c00"/></linearGradient><path fill="url(#b)" d="m37.03 34.28-4.13-4.13v-.3l4.13-4.13.09.05 4.89 2.78c1.4.79 1.4 2.09 0 2.89l-4.89 2.78-.09.06z"/><linearGradient id="c" x1="34.827" x2="12.0687" y1="169.7039" y2="146.9456" gradientTransform="matrix(1 0 0 -1 0 202)" gradientUnits="userSpaceOnUse"><stop offset="0" stop-color="#ff3a44"/><stop offset="1" stop-color="#c31162"/></linearGradient><path fill="url(#c)" d="M37.12 34.22 32.9 30 20.44 42.46c.46.49 1.22.55 2.08.06l14.6-8.3"/><linearGradient id="d" x1="17.2973" x2="27.4599" y1="191.8238" y2="181.6613" gradientTransform="matrix(1 0 0 -1 0 202)" gradientUnits="userSpaceOnUse"><stop offset="0" stop-color="#32a071"/><stop offset=".0685" stop-color="#2da771"/><stop offset=".4762" stop-color="#15cf74"/><stop offset=".8009" stop-color="#06e775"/><stop offset="1" stop-color="#00f076"/></linearGradient><path fill="url(#d)" d="m37.12 25.78-14.61-8.3c-.86-.49-1.62-.43-2.08.06L32.9 30l4.22-4.22z"/><path d="m37.03 34.13-14.52 8.25c-.81.46-1.54.43-2 .01l-.07.07.07.07c.47.42 1.19.45 2-.01l14.61-8.3-.09-.09z" opacity=".2"/><path d="M20.44 42.32c-.29-.31-.46-.79-.46-1.4v.15c0 .62.17 1.1.46 1.4l.07-.07-.07-.08zM42.01 31.3l-4.99 2.83.09.09L42 31.44c.7-.4 1.05-.92 1.05-1.44-.05.47-.4.94-1.04 1.3z" opacity=".12"/><path fill="#fff" d="m22.51 17.62 19.5 11.08c.63.36.99.82 1.05 1.3 0-.52-.35-1.05-1.05-1.44l-19.5-11.08c-1.4-.79-2.54-.13-2.54 1.47v.15c0-1.61 1.15-2.27 2.54-1.48z" opacity=".25"/><path fill="#fff" stroke="#fff" stroke-miterlimit="10" stroke-width=".2" d="M56.22 22.22c-.59.61-1.32.91-2.2.91-.88 0-1.61-.3-2.2-.91-.59-.61-.88-1.35-.88-2.22s.29-1.62.88-2.22c.59-.61 1.32-.91 2.2-.91.87 0 1.6.3 2.2.91.59.61.89 1.35.89 2.22-.01.88-.3 1.62-.89 2.22zm-3.83-.5c.44.45.99.67 1.63.67.64 0 1.19-.22 1.63-.67.44-.45.67-1.02.67-1.72s-.22-1.27-.67-1.72c-.44-.45-.99-.67-1.63-.67-.64 0-1.19.22-1.63.67-.44.45-.67 1.02-.67 1.72s.22 1.27.67 1.72zM58.18 23v-6h.94l2.92 4.67h.03l-.03-1.16V17h.77v6h-.8l-3.05-4.89h-.03l.03 1.16V23h-.78zm8.05 0h-.77v-5.26h-1.68V17h4.12v.74h-1.68V23zm2.65 0v-6h1.83c.92 0 1.66.28 2.21.83.55.56.83 1.28.83 2.17 0 .89-.28 1.61-.83 2.17-.55.55-1.29.83-2.21.83h-1.83zm.77-.74h1.06c.69 0 1.24-.2 1.65-.6.41-.4.61-.95.61-1.67 0-.71-.2-1.26-.61-1.66-.41-.4-.95-.6-1.65-.6h-1.06v4.53zm8.69-4.52H75.6v1.9h2.46v.72H75.6v1.9h2.73V23h-3.5v-6h3.5v.74zm5.65-.74v.03l-2.23 2.57 2.38 3.36V23h-.95l-1.95-2.8-.92 1.06V23h-.77v-6h.77v3.09h.03L82.99 17h1zm2.94 6v-6h.77v2.57h3V17h.77v6h-.77v-2.71h-3V23h-.77zm9.42-5.26h-2.73v1.9h2.46v.72h-2.46v1.9h2.73V23h-3.5v-6h3.5v.74zM99.61 23h-.77v-5.26h-1.68V17h4.12v.74H99.6V23zm9.48-.78c-.59.61-1.32.91-2.2.91-.88 0-1.61-.3-2.2-.91-.59-.61-.88-1.35-.88-2.22s.29-1.62.88-2.22c.59-.61 1.32-.91 2.2-.91.87 0 1.6.3 2.2.91.59.61.89 1.35.89 2.22-.01.88-.3 1.62-.89 2.22zm-3.83-.5c.44.45.99.67 1.63.67s1.19-.22 1.63-.67c.44-.45.67-1.02.67-1.72s-.22-1.27-.67-1.72c-.44-.45-.99-.67-1.63-.67s-1.19.22-1.63.67c-.44.45-.67 1.02-.67 1.72s.22 1.27.67 1.72zm6.56 1.28h-.77v-6h2.04c.51 0 .95.17 1.32.51.37.34.56.76.56 1.28 0 .51-.19.94-.56 1.28-.37.34-.81.51-1.32.51h-1.27V23zm0-3.17h1.29c.32 0 .58-.11.78-.33.2-.22.29-.46.29-.72 0-.26-.1-.5-.29-.72-.2-.22-.46-.33-.78-.33h-1.29v2.1z"/></svg>