<svg width="45" height="32" fill="none" xmlns="http://www.w3.org/2000/svg"><rect width="45" height="32" rx="2" fill="#fff"/><path fill-rule="evenodd" clip-rule="evenodd" d="M19.322 24.598l.294-1.932-.655-.016h-3.13l2.175-14.258a.19.19 0 01.06-.112.174.174 0 01.117-.044h5.278c1.753 0 2.962.376 3.594 1.12.296.35.484.714.575 1.116.096.42.098.924.004 1.537l-.006.045v.393l.296.174c.249.136.447.293.599.472.253.298.417.678.486 1.127.072.463.048 1.013-.07 1.636-.134.717-.353 1.34-.648 1.851-.27.47-.616.861-1.026 1.164a4.102 4.102 0 01-1.384.645 6.69 6.69 0 01-1.729.206h-.41c-.294 0-.58.11-.803.306-.225.2-.373.473-.42.772l-.03.174-.52 3.406-.024.125c-.006.04-.017.059-.032.072a.085.085 0 01-.054.02h-2.537z" fill="#28356A"/><path fill-rule="evenodd" clip-rule="evenodd" d="M28.204 12.1c-.015.104-.034.21-.054.32-.696 3.694-3.077 4.97-6.12 4.97h-1.548a.76.76 0 00-.743.658L18.72 24.72a.405.405 0 00.391.474h2.747a.668.668 0 00.653-.576l.027-.144.517-3.393.033-.186a.668.668 0 01.653-.577h.41c2.662 0 4.746-1.116 5.355-4.348.254-1.35.122-2.478-.55-3.27a2.638 2.638 0 00-.753-.6z" fill="#298FC2"/><path fill-rule="evenodd" clip-rule="evenodd" d="M27.476 11.8a5.324 5.324 0 00-.677-.156 8.34 8.34 0 00-1.366-.103h-4.137a.639.639 0 00-.285.067.68.68 0 00-.367.51l-.88 5.762-.026.168a.76.76 0 01.744-.658h1.548c3.042 0 5.424-1.277 6.12-4.97.02-.11.038-.216.054-.32a3.642 3.642 0 00-.728-.3z" fill="#22284F"/><path fill-rule="evenodd" clip-rule="evenodd" d="M20.644 12.118a.678.678 0 01.367-.51.638.638 0 01.285-.066h4.138c.49 0 .947.033 1.365.103a5.302 5.302 0 01.833.205 3.7 3.7 0 01.573.25c.207-1.366-.002-2.295-.716-3.137-.788-.926-2.209-1.323-4.027-1.323h-5.279a.762.762 0 00-.745.659l-2.199 14.405a.464.464 0 00.447.542h3.26l1.698-11.128z" fill="#28356A"/></svg>