<svg width="32" height="32" fill="none" xmlns="http://www.w3.org/2000/svg"><path d="M10.7928 26.8307c10.5665 0 16.3565-8.7547 16.3565-16.3565 0-.2534 0-.49413-.0126-.74752C28.2643 8.91582 29.2398 7.90224 30 6.7493c-1.0262.45611-2.1412.76018-3.3068.89955 1.191-.7095 2.1032-1.8371 2.5213-3.18009-1.115.65882-2.3439 1.14027-3.6489 1.39366-1.0516-1.11493-2.5466-1.81176-4.1937-1.81176-3.18 0-5.752 2.57194-5.752 5.75204 0 .4561.0507.8869.152 1.305-4.7764-.2281-9.0081-2.50862-11.84611-5.99279-.49412.84887-.77285 1.83711-.77285 2.88869 0 1.98914 1.01358 3.7502 2.55928 4.7891-.93756-.0253-1.82444-.2914-2.59729-.7221v.076c0 2.7873 1.97647 5.1059 4.61177 5.638-.48145.1267-.98824.2027-1.52036.2027-.36743 0-.73485-.038-1.07693-.1013.73484 2.2805 2.85068 3.9402 5.37199 3.9909-1.96384 1.5457-4.4471 2.4579-7.13307 2.4579-.46878 0-.92489-.0253-1.36833-.076 2.52127 1.6217 5.53665 2.5719 8.7928 2.5719" fill="#262626"/></svg>