<svg width="45" height="32" fill="none" xmlns="http://www.w3.org/2000/svg"><rect width="45" height="32" rx="2" fill="#fff"/><path fill-rule="evenodd" clip-rule="evenodd" d="M14.174 21.144h-2.747l-2.06-8.088c-.097-.372-.304-.7-.61-.855a8.764 8.764 0 00-2.517-.857v-.31h4.424c.61 0 1.069.467 1.145 1.01l1.069 5.834 2.745-6.845h2.67l-4.12 10.111zm5.645 0h-2.594l2.136-10.11h2.594l-2.136 10.11zm5.491-7.31c.077-.544.535-.856 1.069-.856a4.712 4.712 0 012.517.467l.458-2.177a6.4 6.4 0 00-2.365-.468c-2.517 0-4.349 1.4-4.349 3.344 0 1.479 1.298 2.255 2.214 2.723.99.467 1.372.778 1.296 1.244 0 .7-.763 1.011-1.525 1.011-.916 0-1.832-.233-2.67-.622l-.458 2.178c.916.388 1.907.544 2.822.544 2.823.077 4.577-1.322 4.577-3.422 0-2.645-3.586-2.8-3.586-3.966zm12.663 7.31l-2.06-10.11h-2.211a1.15 1.15 0 00-1.069.777l-3.813 9.333h2.67l.533-1.477h3.28l.306 1.477h2.364zm-3.89-7.388l.762 3.81H32.71l1.373-3.81z" fill="#172B85"/></svg>